{"title":"Miley Cyrus - Dooo It! (2015.Trap)","uid":12327254,"size":146788758,"categoryP":"video","categoryS":"music_videos","magnet":"?xt=urn:btih:67388d241dc5f7d2c5be5adccc8a3b7a59bf7ae9&amp;dn=Miley+Cyrus+-+Dooo+It%21+%282015.Trap%29&amp;tr=udp%3A%2F%2Ftracker.openbittorrent.com%3A80&amp;tr=udp%3A%2F%2Fopen.demonii.com%3A1337&amp;tr=udp%3A%2F%2Ftracker.coppersurfer.tk%3A6969&amp;tr=udp%3A%2F%2Fexodus.desync.com%3A6969","seeders":1,"leechers":0,"uploader":"MeRaDil","files":1,"time":1441134647,"description":"MILEY CYRUS - DOOO IT!\n\n &lt;a href=&quot;\nhttp://ultraimg.com/images/miley-2.png&quot; rel=&quot;nofollow&quot; target=&quot;_NEW&quot;&gt;\nhttp://ultraimg.com/images/miley-2.png&lt;/a&gt;\n &lt;a href=&quot;\nhttp://ultraimg.com/images/miley-3.png&quot; rel=&quot;nofollow&quot; target=&quot;_NEW&quot;&gt;\nhttp://ultraimg.com/images/miley-3.png&lt;/a&gt;\n\n\nGeneral\nMiley Cyrus - Dooo It!\nFormat                                   : MPEG-4\nFormat profile                           : Base Media\nCodec ID                                 : isom\nFile size                                : 140 MiB\nDuration                                 : 4mn 26s\nOverall bit rate                         : 4 400 Kbps\nMusicVid name                            : Dooo It!\nAlbum                                    : Miley Cyrus and Her Dead Petz\nPerformer                                : Miley Cyrus\nGenre                                    : Trap\nContentType                              : Music Video\nRecorded date                            : 2015\nRating                                   : Unrated\nMake                                     : MeRaDil\nRelease date                             : USA . august 30 . 2015\n &lt;a href=&quot;\nhttps://thepiratebay.vg/user/MeRaDil&quot; rel=&quot;nofollow&quot; target=&quot;_NEW&quot;&gt;\nhttps://thepiratebay.vg/user/MeRaDil&lt;/a&gt;\n\nVideo\nID                                       : 1\nFormat                                   : AVC\nFormat/Info                              : Advanced Video Codec\nFormat profile                           : &lt;a class=&quot;__cf_email__&quot; href=&quot;/cdn-cgi/l/email-protection&quot; data-cfemail=&quot;c68eafa1ae868af2e8f6&quot;&gt;[email&amp;#160;protected]&lt;/a&gt;&lt;script data-cfhash='f9e31' type=&quot;text/javascript&quot;&gt;\n/* &lt;![CDATA[ */!function(){try{var t=&quot;currentScript&quot;in document?document.currentScript:function(){for(var t=document.getElementsByTagName(&quot;script&quot;),e=t.length;e--;)if(t[e].getAttribute(&quot;data-cfhash&quot;))return t[e]}();if(t&amp;&amp;t.previousSibling){var e,r,n,i,c=t.previousSibling,a=c.getAttribute(&quot;data-cfemail&quot;);if(a){for(e=&quot;&quot;,r=parseInt(a.substr(0,2),16),n=2;a.length-n;n+=2)i=parseInt(a.substr(n,2),16)^r,e+=String.fromCharCode(i);e=document.createTextNode(e),c.parentNode.replaceChild(e,c)}t.parentNode.removeChild(t);}}catch(u){}}()/* ]]&gt; */&lt;/script&gt;\nFormat settings, CABAC                   : Yes\nFormat settings, ReFrames                : 2 frames\nCodec ID                                 : avc1\nCodec ID/Info                            : Advanced Video Coding\nDuration                                 : 4mn 26s\nBit rate                                 : 4 120 Kbps\nWidth                                    : 1 920 pixels\nHeight                                   : 1 080 pixels\nDisplay aspect ratio                     : 16:9\nFrame rate mode                          : Variable\nFrame rate                               : 23.976 fps\nMinimum frame rate                       : 23.974 fps\nMaximum frame rate                       : 23.981 fps\nColor space                              : YUV\nChroma subsampling                       : 4:2:0\nBit depth                                : 8 bits\nScan type                                : Progressive\nBits/(Pixel*Frame)                       : 0.083\nStream size                              : 131 MiB (94%)\n\nAudio\nID                                       : 2\nFormat                                   : AAC\nFormat/Info                              : Advanced Audio Codec\nFormat profile                           : LC\nCodec ID                                 : 40\nDuration                                 : 4mn 26s\nBit rate mode                            : Constant\nBit rate                                 : 256 Kbps\nChannel(s)                               : 2 channels\nChannel positions                        : Front: L R\nSampling rate                            : 44.1 KHz\nCompression mode                         : Lossy\nStream size                              : 8.14 MiB (6%)\n\nMiley Cyrus and Her Dead Petz * Promo * Trap","torrent":{"xt":"urn:btih:67388d241dc5f7d2c5be5adccc8a3b7a59bf7ae9","amp;dn":"Miley+Cyrus+-+Dooo+It%21+%282015.Trap%29","amp;tr":["udp%3A%2F%2Ftracker.openbittorrent.com%3A80","udp%3A%2F%2Fopen.demonii.com%3A1337","udp%3A%2F%2Ftracker.coppersurfer.tk%3A6969","udp%3A%2F%2Fexodus.desync.com%3A6969"],"infoHash":"67388d241dc5f7d2c5be5adccc8a3b7a59bf7ae9","infoHashBuffer":{"type":"Buffer","data":[103,56,141,36,29,197,247,210,197,190,90,220,204,138,59,122,89,191,122,233]},"announce":[],"urlList":[]}}